HIERARCHY
ROOT Hips
{
 OFFSET 0.000000 0.000000 0.000000
 CHANNELS 6 Xposition Yposition Zposition Yrotation Xrotation Zrotation
 JOINT Chest
 {
  OFFSET 0.000000 9.585900 0.002600
  CHANNELS 3 Yrotation Xrotation Zrotation
  JOINT Chest2
  {
   OFFSET 0.000000 9.601200 -0.005300
   CHANNELS 3 Yrotation Xrotation Zrotation
   JOINT Chest3
   {
    OFFSET 0.000000 9.561800 0.000000
    CHANNELS 3 Yrotation Xrotation Zrotation
    JOINT Chest4
    {
     OFFSET 0.000000 9.552100 0.000000
     CHANNELS 3 Yrotation Xrotation Zrotation
     JOINT Neck
     {
      OFFSET 0.000000 14.453000 0.000000
      CHANNELS 3 Yrotation Xrotation Zrotation
      JOINT Head
      {
       OFFSET 0.000000 8.936500 -0.011300
       CHANNELS 3 Yrotation Xrotation Zrotation
       End Site
       {
        OFFSET 0.000000 17.073600 -0.006000
       }
      }
     }
     JOINT RightCollar
     {
      OFFSET -2.921100 9.558500 0.000000
      CHANNELS 3 Yrotation Xrotation Zrotation
      JOINT RightShoulder
      {
       OFFSET -13.519700 0.000000 0.000000
       CHANNELS 3 Yrotation Xrotation Zrotation
       JOINT RightElbow
       {
        OFFSET 0.000000 -29.696600 0.000000
        CHANNELS 3 Yrotation Xrotation Zrotation
        JOINT RightWrist
        {
         OFFSET 0.000000 -24.004700 0.000000
         CHANNELS 3 Yrotation Xrotation Zrotation
         End Site
         {
          OFFSET 0.000000 -17.728500 0.000000
         }
        }
       }
      }
     }
     JOINT LeftCollar
     {
      OFFSET 2.921100 9.558500 0.000000
      CHANNELS 3 Yrotation Xrotation Zrotation
      JOINT LeftShoulder
      {
       OFFSET 13.519700 0.000000 0.000000
       CHANNELS 3 Yrotation Xrotation Zrotation
       JOINT LeftElbow
       {
        OFFSET 0.000000 -29.696600 0.000000
        CHANNELS 3 Yrotation Xrotation Zrotation
        JOINT LeftWrist
        {
         OFFSET 0.000000 -24.004700 0.000000
         CHANNELS 3 Yrotation Xrotation Zrotation
         End Site
         {
          OFFSET 0.000000 -17.728500 0.000000
         }
        }
       }
      }
     }
    }
   }
  }
 }
 JOINT RightHip
 {
  OFFSET -7.771700 -0.012900 -0.001300
  CHANNELS 3 Yrotation Xrotation Zrotation
  JOINT RightKnee
  {
   OFFSET 0.000000 -40.869800 0.001200
   CHANNELS 3 Yrotation Xrotation Zrotation
   JOINT RightAnkle
   {
    OFFSET 0.000000 -39.717900 0.002100
    CHANNELS 3 Yrotation Xrotation Zrotation
    JOINT RightToe
    {
     OFFSET 0.000000 -4.965400 11.033500
     CHANNELS 3 Yrotation Xrotation Zrotation
     End Site
     {
      OFFSET 0.000000 -1.423100 5.872300
     }
    }
   }
  }
 }
 JOINT LeftHip
 {
  OFFSET 7.771700 -0.012900 -0.001300
  CHANNELS 3 Yrotation Xrotation Zrotation
  JOINT LeftKnee
  {
   OFFSET 0.000000 -40.869800 0.001200
   CHANNELS 3 Yrotation Xrotation Zrotation
   JOINT LeftAnkle
   {
    OFFSET 0.000000 -39.717900 0.002100
    CHANNELS 3 Yrotation Xrotation Zrotation
    JOINT LeftToe
    {
     OFFSET 0.000000 -4.965400 11.033500
     CHANNELS 3 Yrotation Xrotation Zrotation
     End Site
     {
      OFFSET 0.000000 -1.423100 5.872300
     }
    }
   }
  }
 }
}
MOTION
Frames: 11
Frame Time: 0.008333
2.773050 50.035659 41.561891 173.049413 -26.909184 -6.386868 6.223653 16.033384 6.527033 0.581513 1.788968 0.502507 1.007027 3.004272 0.865171 5.272675 14.189598 4.669711 -1.437409 18.108405 1.968510 -3.284745 -2.088209 4.088038 -0.855350 -3.484668 -6.279167 5.822376 -7.163153 -1.096295 -155.098842 -64.717704 152.728972 -8.943811 -5.685273 33.452235 -11.374810 -1.849941 0.878702 6.061929 -9.844231 1.289386 138.509108 -59.091535 -142.632394 38.342560 14.805919 -42.784820 -1.212951 -53.947850 10.085575 -100.224250 82.430236 -88.502047 -0.260015 -10.580651 -4.752672 -0.302711 1.107430 -0.137091 -13.467338 -57.583215 19.687542 -145.509126 82.748161 -153.582537 0.674270 -13.754466 7.343678 -0.377031 -0.669363 -0.193608
2.781521 50.034222 41.564030 173.093301 -26.962065 -6.434928 6.223168 16.100198 6.579387 0.574254 1.786567 0.500515 1.023844 3.043137 0.876211 5.283859 14.237935 4.682678 -1.448372 18.109452 1.973716 -3.306515 -2.085510 4.101103 -0.881574 -3.455633 -6.259447 5.813361 -7.159939 -1.076786 -155.532508 -64.871362 152.975709 -9.015691 -5.765025 33.126139 -11.425765 -1.787767 0.900803 6.034441 -9.844877 1.260317 138.897560 -59.233527 -142.743062 38.500994 14.534987 -41.961089 -1.329020 -53.867842 10.197731 -100.028788 82.414477 -88.338832 -0.289578 -10.624277 -4.759820 -0.274433 1.148892 -0.123622 -13.569301 -57.535675 19.741375 -145.208391 82.711008 -153.291677 0.755019 -13.742978 7.344467 -0.393358 -0.684971 -0.207424
2.784629 50.032139 41.568200 173.124572 -27.001122 -6.456034 6.227550 16.155083 6.607390 0.594191 1.823867 0.514524 1.003644 3.029851 0.866644 5.302389 14.301268 4.703881 -1.461339 18.111828 1.981422 -3.332723 -2.080183 4.119376 -0.899649 -3.433698 -6.233457 5.809004 -7.150177 -1.074663 -156.018286 -65.030126 153.256616 -9.065929 -5.841581 32.761709 -11.481018 -1.729943 0.918789 6.006575 -9.837726 1.236042 139.301353 -59.368291 -142.859098 38.606713 14.258118 -41.182244 -1.380998 -53.811454 10.226118 -99.933828 82.412084 -88.253377 -0.273913 -10.655302 -4.762643 -0.282581 1.179713 -0.127400 -13.608837 -57.507307 19.744830 -144.836537 82.676580 -152.922373 0.824740 -13.732931 7.349333 -0.395502 -0.694338 -0.216111
2.786015 50.032763 41.570001 173.158459 -27.058597 -6.477915 6.227451 16.224208 6.633981 0.603112 1.843169 0.520600 0.984030 3.012478 0.857600 5.345178 14.391922 4.741491 -1.478538 18.114714 1.991270 -3.367450 -2.073569 4.142990 -0.916270 -3.417528 -6.201437 5.809449 -7.134462 -1.090504 -156.526431 -65.187987 153.553973 -9.091399 -5.900058 32.358198 -11.547569 -1.675907 0.932041 5.980225 -9.829779 1.213877 139.657110 -59.489575 -142.930863 38.651109 13.990316 -40.481918 -1.421124 -53.733232 10.234078 -99.832231 82.413619 -88.155767 -0.235616 -10.677700 -4.759617 -0.308948 1.202280 -0.139501 -13.624764 -57.455757 19.728500 -144.745787 82.665334 -152.831103 0.844179 -13.732402 7.375416 -0.392130 -0.708939 -0.224574
2.784711 50.035265 41.571597 173.184768 -27.120203 -6.492935 6.220738 16.290351 6.648990 0.604002 1.847051 0.521670 1.041423 3.096486 0.893883 5.331734 14.404621 4.741783 -1.499537 18.118768 2.004289 -3.410098 -2.064367 4.173649 -0.937832 -3.402246 -6.163712 5.814422 -7.113895 -1.118458 -157.025904 -65.343088 153.844741 -9.101931 -5.934078 31.934527 -11.622407 -1.621737 0.943734 5.955044 -9.830150 1.188287 139.924913 -59.597204 -142.928525 38.642722 13.745163 -39.869243 -1.440262 -53.658739 10.229577 -99.769692 82.412603 -88.093178 -0.205616 -10.678589 -4.764272 -0.317649 1.204902 -0.140874 -13.620049 -57.400701 19.700918 -144.662923 82.657010 -152.745149 0.852191 -13.723838 7.387595 -0.388485 -0.721476 -0.224091
2.780843 50.041177 41.570217 173.212175 -27.203618 -6.503692 6.237944 16.380053 6.675911 0.609018 1.863463 0.526650 1.057359 3.133285 0.909536 5.341096 14.445349 4.755708 -1.522188 18.124219 2.021000 -3.456849 -2.052267 4.211481 -0.967414 -3.382499 -6.119777 5.825109 -7.093103 -1.155527 -157.482722 -65.495209 154.097375 -9.105712 -5.950136 31.509149 -11.692406 -1.565522 0.954877 5.925584 -9.843920 1.156389 140.085273 -59.690546 -142.842444 38.602550 13.535565 -39.324578 -1.445497 -53.560299 10.210634 -99.698224 82.419202 -88.017863 -0.204892 -10.671841 -4.757494 -0.341214 1.197602 -0.150611 -13.599003 -57.320417 19.654471 -144.471417 82.646371 -152.552684 0.872038 -13.704465 7.390364 -0.380634 -0.743583 -0.213972
2.776820 50.048659 41.570166 173.223212 -27.284313 -6.518291 6.267802 16.462893 6.716137 0.613773 1.879563 0.530989 1.047340 3.135580 0.904557 5.390360 14.522354 4.793099 -1.545336 18.130894 2.040627 -3.505366 -2.037757 4.254731 -1.004229 -3.355365 -6.072390 5.836125 -7.079164 -1.200949 -157.849683 -65.641095 154.273180 -9.105710 -5.952404 31.095403 -11.751772 -1.506885 0.963033 5.884778 -9.874794 1.119971 140.133835 -59.771895 -142.672221 38.555091 13.376151 -38.817607 -1.439543 -53.455745 10.183133 -99.554297 82.429628 -87.857232 -0.147006 -10.679756 -4.760312 -0.388977 1.209848 -0.164216 -13.562050 -57.244221 19.616489 -144.455916 82.645420 -152.527626 0.868380 -13.688479 7.397587 -0.371472 -0.759538 -0.213258
2.774600 50.055961 41.574815 173.189961 -27.344176 -6.535625 6.363475 16.512930 6.798604 0.618470 1.911485 0.536156 1.014536 3.125306 0.885059 5.441283 14.598537 4.831406 -1.568177 18.140005 2.062993 -3.554147 -2.018692 4.302852 -1.040773 -3.316092 -6.025481 5.835498 -7.076266 -1.249553 -158.090551 -65.774293 154.347064 -9.104055 -5.940790 30.716688 -11.799308 -1.442807 0.968881 5.831095 -9.923804 1.081667 140.087672 -59.847166 -142.432306 38.522069 13.272266 -38.320500 -1.419185 -53.374737 10.186459 -99.352129 82.445549 -87.633578 -0.070952 -10.722495 -4.738983 -0.443801 1.265188 -0.205759 -13.486571 -57.192131 19.591255 -144.443501 82.647537 -152.481564 0.901348 -13.667791 7.416860 -0.395183 -0.788142 -0.223261
2.766984 50.065121 41.575945 173.198267 -27.420240 -6.543201 6.392957 16.582848 6.834303 0.601411 1.918959 0.525272 1.079263 3.199279 0.929765 5.431701 14.621728 4.828967 -1.590821 18.152591 2.086988 -3.603028 -1.993111 4.353775 -1.075853 -3.262217 -5.981558 5.819334 -7.082984 -1.294391 -158.209804 -65.893673 154.323301 -9.104458 -5.925841 30.401389 -11.838206 -1.370459 0.977443 5.771998 -9.989492 1.040866 139.978067 -59.922827 -142.147399 38.509837 13.216517 -37.822162 -1.384333 -53.274533 10.132955 -99.177843 82.477364 -87.437223 -0.027990 -10.734141 -4.732830 -0.475842 1.283659 -0.222533 -13.450234 -57.115362 19.552393 -144.317525 82.646711 -152.360117 0.917146 -13.652410 7.435562 -0.391360 -0.805793 -0.221002
2.759512 50.074728 41.576830 173.203393 -27.500671 -6.552616 6.414338 16.658713 6.862445 0.621723 1.934992 0.538754 1.098782 3.240936 0.945440 5.447602 14.669187 4.842657 -1.613946 18.165640 2.109601 -3.652354 -1.966621 4.402262 -1.112451 -3.197701 -5.941083 5.789299 -7.096257 -1.332861 -158.251125 -66.002043 154.238118 -9.109268 -5.919892 30.155086 -11.872321 -1.291838 0.990537 5.715106 -10.067414 0.998602 139.852257 -60.004476 -141.853356 38.514524 13.189946 -37.328312 -1.344574 -53.172050 10.085253 -99.002645 82.506638 -87.238978 0.007186 -10.743025 -4.728653 -0.510174 1.299217 -0.233727 -13.385810 -57.036196 19.494612 -144.234159 82.650860 -152.261303 0.912604 -13.645270 7.455223 -0.381724 -0.817708 -0.211380
2.751741 50.083793 41.577569 173.208009 -27.583174 -6.559102 6.434647 16.737067 6.887498 0.639356 1.951590 0.551646 1.111184 3.276805 0.955791 5.477158 14.729365 4.865091 -1.636584 18.173615 2.129050 -3.699887 -1.949697 4.444975 -1.147713 -3.129051 -5.902041 5.746173 -7.113355 -1.366934 -158.271419 -66.104199 154.145785 -9.124291 -5.929532 29.958138 -11.906190 -1.211862 1.005887 5.664774 -10.148404 0.959612 139.767692 -60.096209 -141.590441 38.525433 13.159250 -36.841872 -1.239950 -53.067856 9.976626 -98.830508 82.547550 -87.005466 0.051768 -10.768546 -4.715584 -0.553467 1.330772 -0.258337 -13.311721 -56.956901 19.430099 -144.095103 82.649122 -152.105807 0.918086 -13.636660 7.463085 -0.367879 -0.826085 -0.200688
